<svg width="24" height="24" viewBox="0 0 24 24" fill="none" xmlns="http://www.w3.org/2000/svg">
<path d="M21 12C21 16.9613 16.9613 21 12 21C7.03875 21 3 16.9613 3 12C3 7.03875 7.03875 3 12 3C14.5875 3 17.0437 4.09125 18.75 5.9025V3.375C18.75 2.9625 19.0875 2.625 19.5 2.625C19.9125 2.625 20.25 2.9625 20.25 3.375V8.25C20.25 8.595 20.0138 8.89875 19.6763 8.9775C19.3388 9.06 18.99 8.89875 18.8325 8.59125C17.5613 6.105 14.8763 4.5 12 4.5C7.86375 4.5 4.5 7.86375 4.5 12C4.5 16.1362 7.86375 19.5 12 19.5C16.1362 19.5 19.5 16.1362 19.5 12C19.5 11.5875 19.8375 11.25 20.25 11.25C20.6625 11.25 21 11.5875 21 12ZM14.25 8.625C15.7725 8.625 16.875 10.0462 16.875 12C16.875 13.9537 15.7725 15.375 14.25 15.375C12.7275 15.375 11.625 13.9537 11.625 12C11.625 10.0462 12.7275 8.625 14.25 8.625ZM14.25 10.125C13.5975 10.125 13.125 10.9125 13.125 12C13.125 13.0875 13.5975 13.875 14.25 13.875C14.9025 13.875 15.375 13.0875 15.375 12C15.375 10.9125 14.9025 10.125 14.25 10.125ZM9.75 15.375C10.1625 15.375 10.5 15.0375 10.5 14.625V9.375C10.5 9.12375 10.3763 8.89125 10.1663 8.7525C9.95625 8.61375 9.69375 8.5875 9.46125 8.685L7.96125 9.3075C7.57875 9.465 7.39875 9.90375 7.55625 10.2863C7.71375 10.6687 8.1525 10.8488 8.535 10.6912L8.99625 10.5V14.6287C8.99625 15.0412 9.33375 15.3787 9.74625 15.3787L9.75 15.375Z" fill="#0D0D0D"/>
</svg>
