<svg width="136" height="136" viewBox="0 0 136 136" fill="none" xmlns="http://www.w3.org/2000/svg">
<path d="M60.8239 0H10.7186C8.75017 0 7.13965 1.61053 7.13965 3.57895V25.0526C7.13965 26.0011 7.51544 26.9137 8.19544 27.5758L29.6691 49.0495C30.3491 49.7295 31.2439 50.1053 32.1923 50.1053H60.8239C70.6839 50.1053 78.7186 58.14 78.7186 68C78.7186 77.86 70.6839 85.8947 60.8239 85.8947H21.4554C19.487 85.8947 17.8765 87.5053 17.8765 89.4737V110.947C17.8765 111.896 18.2523 112.808 18.9323 113.471L40.406 134.944C41.086 135.624 41.9807 136 42.9291 136H60.8239C98.3133 136 128.824 105.489 128.824 68C128.824 30.5105 98.3133 0 60.8239 0ZM14.2975 12.2221L28.6133 26.5379V37.8832L14.2975 23.5674V12.2221ZM85.8765 68C85.8765 54.1853 74.6386 42.9474 60.8239 42.9474H35.7712V28.6316H60.8239C82.5302 28.6316 100.192 46.2937 100.192 68C100.192 89.7063 82.5302 107.368 60.8239 107.368H44.4144L30.0986 93.0526H60.8239C74.6386 93.0526 85.8765 81.8147 85.8765 68ZM25.0344 98.1168L39.3502 112.433V123.778L25.0344 109.462V98.1168ZM60.8239 128.842H46.5081V114.526H60.8239C86.4849 114.526 107.35 93.661 107.35 68C107.35 42.3389 86.4849 21.4737 60.8239 21.4737H33.6775L19.3618 7.15789H60.8239C94.3765 7.15789 121.666 34.4474 121.666 68C121.666 101.553 94.3765 128.842 60.8239 128.842Z" fill="#161616"/>
</svg>
