<svg width="132" height="21" viewBox="0 0 132 21" fill="none" xmlns="http://www.w3.org/2000/svg">
<g clip-path="url(#clip0_215_3457)">
<path d="M27.1882 19.931H24.7646L29.3583 0.332031H31.7568L27.1907 19.931H27.1882Z" fill="#0D0D0D"/>
<path d="M38.4607 19.931H30.3672L34.9935 0.332031H37.417L33.3025 17.7374H38.9675L38.4607 19.931Z" fill="#0D0D0D"/>
<path d="M44.8078 12.3523L43.0591 19.931H40.6055L42.3817 12.2954L41.0295 0.332031H43.4831L44.1881 9.882L49.4592 0.332031H52.1938L44.8078 12.3523Z" fill="#0D0D0D"/>
<path d="M99.0839 2.52561H95.5314L91.6929 19.931H89.2392L93.0777 2.52561H89.1865L89.7234 0.332031H99.6208L99.0839 2.52561Z" fill="#0D0D0D"/>
<path d="M99.0037 19.931H96.8311L101.176 0.332031H103.572L99.2571 19.931H99.0037Z" fill="#0D0D0D"/>
<path d="M114.842 5.845L112.699 15.4617C112.408 16.8228 112.002 17.7961 111.475 18.4902C110.672 19.5746 109.358 20.1033 107.579 20.1033C104.646 20.1033 102.965 18.8237 102.932 16.6301C102.922 15.9903 103 15.4073 103.236 14.3525L105.379 4.73586C106.091 1.48255 107.762 0.0078125 110.667 0.0078125C113.572 0.0078125 115.085 1.34175 115.118 3.56497C115.128 4.20476 115.05 4.87173 114.839 5.84253H114.842V5.845ZM110.557 2.06553C109.711 2.06553 109.067 2.3422 108.625 2.898C108.264 3.34264 108.078 3.92562 107.81 5.06441L105.667 14.7354C105.534 15.3184 105.459 15.8742 105.464 16.2917C105.481 17.4601 106.252 18.0974 107.576 18.0974C108.986 18.0974 109.736 17.2921 110.186 15.2912L112.356 5.73137C112.566 4.78527 112.647 4.34062 112.639 3.89598C112.622 2.70038 111.879 2.06059 110.552 2.06059H110.554L110.557 2.06553Z" fill="#0D0D0D"/>
<path d="M54.0729 0.351562H58.1347L59.2511 11.5887C59.4518 13.7551 59.5647 15.5041 59.7102 17.8706H59.7679C60.7112 15.5337 61.5141 13.7601 62.5703 11.5887L68.1148 0.351562H72.2343L70.0341 19.9233H67.3446L68.747 8.23659C69.0055 6.12453 69.2915 4.32125 69.6352 2.15484L69.5775 2.1252C68.604 4.23726 67.746 6.09489 66.6898 8.23659L61.0274 19.9233H57.5652L56.4788 8.23659C56.2781 6.12453 56.1351 4.23726 55.9921 2.15484H55.9369C55.4527 4.23726 54.9936 6.09736 54.3915 8.23659L51.2454 19.9233H48.5283L54.0729 0.351562Z" fill="#0D0D0D"/>
<path d="M88.2988 10.1255C86.8462 17.6425 83.685 20.2782 78.7 20.2782C74.7686 20.2782 72.6035 18.596 72.6035 14.2756C72.6035 12.9836 72.744 11.7213 73.0601 10.1527C74.5704 2.63822 77.6764 0 82.689 0C86.5903 0 88.7855 1.68224 88.7855 6.0027C88.7855 7.29464 88.6149 8.55693 88.3013 10.1255H88.2988ZM82.3729 2.07748C79.1265 2.07748 76.9338 4.18213 75.7371 10.2095C75.4234 11.6102 75.2528 12.9861 75.2528 14.11C75.2528 17.0249 76.5048 18.2032 78.9835 18.2032C82.26 18.2032 84.4226 16.0986 85.6495 10.0712C85.9355 8.67056 86.1337 7.29464 86.1337 6.17067C86.1337 3.28049 84.8818 2.07748 82.3729 2.07748Z" fill="#0D0D0D"/>
<path d="M8.60782 0.326172C8.14369 0.326172 4.08188 0.392869 4.08188 0.392869L0 19.9622H1.92428V19.9597C3.02064 19.9498 3.42707 19.972 4.49834 19.972C9.50348 19.972 12.6721 17.7266 14.1298 10.2343H14.1323C14.4459 8.67066 14.619 7.41331 14.619 6.12631C14.619 1.8182 12.5266 0.326172 8.60782 0.326172ZM11.6862 10.2269C10.4543 16.2346 8.48238 17.608 5.19329 17.6253C4.04425 17.6302 3.78333 17.6204 2.91276 17.608L6.03626 2.5074V2.51234C7.01471 2.49011 7.24552 2.48023 8.14368 2.49011C10.6626 2.51234 12.1729 3.46339 12.1729 6.34369C12.1729 7.46271 11.9747 8.8337 11.6887 10.2294L11.6862 10.2269Z" fill="#0D0D0D"/>
<path d="M129.543 0.326172L125.665 17.8822L122.785 0.326172H118.73L114.322 19.9375H116.871L120.747 2.08005L123.605 19.9375H127.617L132 0.326172H129.543Z" fill="#0D0D0D"/>
<path d="M21.0165 0.332031L12.9531 19.931H15.5448L17.0124 16.2676L17.9432 13.9925L18.2719 13.1131H20.9914L20.9036 13.9925L20.7054 16.2701L20.4244 19.9334H22.8781L24.3984 0.332031H21.014H21.0165ZM19.1324 10.8083L22.2559 2.11061L21.2273 10.8083H19.1349H19.1324Z" fill="#0D0D0D"/>
</g>
<defs>
<clipPath id="clip0_215_3457">
<rect width="132" height="20.68" fill="white"/>
</clipPath>
</defs>
</svg>
