<svg width="18" height="12" viewBox="0 0 18 12" fill="none" xmlns="http://www.w3.org/2000/svg">
<path d="M0.302177 0.0858743C0.488696 -0.0267849 0.720012 -0.0284538 0.908974 0.080033L8.57 5.09677V0.625805C8.57 0.403824 8.68484 0.198534 8.87218 0.0858743C9.0587 -0.0267849 9.29001 -0.0284538 9.47897 0.080033L17.6858 5.45419C17.8788 5.56434 17.9986 5.77381 17.9986 5.99996C17.9986 6.22695 17.8788 6.43558 17.6858 6.54657L9.47897 11.9207C9.38694 11.9733 9.2835 12 9.18087 12C9.07417 12 8.96747 11.9716 8.87218 11.9149C8.68484 11.8022 8.57 11.5969 8.57 11.3741L8.57 6.90398L0.908974 11.9207C0.816936 11.9733 0.713496 12 0.61087 12C0.504171 12 0.397473 11.9716 0.302177 11.9149C0.114843 11.8022 0 11.5969 0 11.3741L0 0.625805C0 0.403824 0.114843 0.198534 0.302177 0.0858743Z" fill="#0D0D0D"/>
</svg>
