<svg width="352" height="310" viewBox="0 0 352 310" fill="none" xmlns="http://www.w3.org/2000/svg">
<path d="M1.01634 16V3.328H6.74034C8.43234 3.328 9.67434 3.682 10.4663 4.39C11.2703 5.086 11.6723 6.028 11.6723 7.216C11.6723 7.684 11.5523 8.146 11.3123 8.602C11.0843 9.046 10.7483 9.43 10.3043 9.754C9.87234 10.078 9.35634 10.282 8.75634 10.366C8.55234 10.39 8.45034 10.498 8.45034 10.69C8.45034 10.882 8.55834 10.99 8.77434 11.014C9.56634 11.098 10.1303 11.284 10.4663 11.572C10.8023 11.86 11.0363 12.208 11.1683 12.616L12.2483 16H8.82834L8.32434 13.498C8.22834 13.03 8.09034 12.67 7.91034 12.418C7.74234 12.154 7.47834 11.968 7.11834 11.86C6.77034 11.74 6.27234 11.68 5.62434 11.68H4.04034V16H1.01634ZM6.39834 9.232C7.05834 9.232 7.59834 9.082 8.01834 8.782C8.43834 8.482 8.64834 8.08 8.64834 7.576C8.64834 7.012 8.47434 6.598 8.12634 6.334C7.79034 6.058 7.27434 5.92 6.57834 5.92H4.04034V9.232H6.39834ZM22.3437 10.96C22.3437 11.356 22.3257 11.692 22.2897 11.968H15.3957C15.4917 12.58 15.7377 13.072 16.1337 13.444C16.5297 13.804 17.0217 13.984 17.6097 13.984C18.0417 13.984 18.4017 13.882 18.6897 13.678C18.9777 13.474 19.1817 13.192 19.3017 12.832H22.1637C21.9597 13.816 21.4677 14.638 20.6877 15.298C19.9077 15.958 18.8877 16.288 17.6277 16.288C16.5597 16.288 15.6417 16.066 14.8737 15.622C14.1057 15.178 13.5237 14.578 13.1277 13.822C12.7437 13.054 12.5517 12.196 12.5517 11.248C12.5517 10.264 12.7497 9.394 13.1457 8.638C13.5417 7.87 14.1177 7.276 14.8737 6.856C15.6297 6.424 16.5297 6.208 17.5737 6.208C18.4137 6.208 19.1937 6.382 19.9137 6.73C20.6457 7.078 21.2337 7.612 21.6777 8.332C22.1217 9.04 22.3437 9.916 22.3437 10.96ZM17.6277 8.44C16.4397 8.44 15.7197 9.04 15.4677 10.24H19.5177C19.4697 9.664 19.2777 9.22 18.9417 8.908C18.6057 8.596 18.1677 8.44 17.6277 8.44ZM22.9931 11.248C22.9931 10.312 23.1971 9.466 23.6051 8.71C24.0131 7.942 24.6011 7.336 25.3691 6.892C26.1371 6.436 27.0491 6.208 28.1051 6.208C29.0291 6.208 29.8331 6.4 30.5171 6.784C31.2131 7.156 31.7531 7.654 32.1371 8.278C32.5211 8.89 32.7371 9.55 32.7851 10.258L29.9411 10.276C29.8571 9.808 29.6531 9.424 29.3291 9.124C29.0171 8.812 28.6151 8.656 28.1231 8.656C27.4511 8.656 26.9051 8.908 26.4851 9.412C26.0771 9.916 25.8731 10.528 25.8731 11.248C25.8731 11.968 26.0771 12.58 26.4851 13.084C26.9051 13.588 27.4511 13.84 28.1231 13.84C28.6151 13.84 29.0171 13.684 29.3291 13.372C29.6531 13.06 29.8571 12.67 29.9411 12.202L32.7851 12.22C32.7371 12.928 32.5211 13.594 32.1371 14.218C31.7531 14.842 31.2131 15.346 30.5171 15.73C29.8331 16.102 29.0291 16.288 28.1051 16.288C27.0731 16.288 26.1671 16.066 25.3871 15.622C24.6191 15.166 24.0251 14.56 23.6051 13.804C23.1971 13.036 22.9931 12.184 22.9931 11.248ZM38.4745 6.208C39.4945 6.208 40.3825 6.436 41.1385 6.892C41.9065 7.336 42.4945 7.942 42.9025 8.71C43.3105 9.478 43.5145 10.324 43.5145 11.248C43.5145 12.172 43.3105 13.018 42.9025 13.786C42.4945 14.554 41.9065 15.166 41.1385 15.622C40.3825 16.066 39.4945 16.288 38.4745 16.288C37.4545 16.288 36.5605 16.066 35.7925 15.622C35.0365 15.166 34.4545 14.554 34.0465 13.786C33.6385 13.018 33.4345 12.172 33.4345 11.248C33.4345 10.324 33.6385 9.478 34.0465 8.71C34.4545 7.942 35.0365 7.336 35.7925 6.892C36.5605 6.436 37.4545 6.208 38.4745 6.208ZM38.4745 13.84C39.1585 13.84 39.6865 13.594 40.0585 13.102C40.4425 12.61 40.6345 11.992 40.6345 11.248C40.6345 10.504 40.4425 9.886 40.0585 9.394C39.6865 8.902 39.1585 8.656 38.4745 8.656C37.7905 8.656 37.2565 8.902 36.8725 9.394C36.5005 9.886 36.3145 10.504 36.3145 11.248C36.3145 11.992 36.5005 12.61 36.8725 13.102C37.2565 13.594 37.7905 13.84 38.4745 13.84ZM55.6496 6.208C57.5456 6.208 58.4936 7.504 58.4936 10.096V16H55.6136V10.672C55.6136 9.952 55.5176 9.436 55.3256 9.124C55.1336 8.812 54.8096 8.656 54.3536 8.656C53.9336 8.656 53.5796 8.92 53.2916 9.448C53.0156 9.964 52.8776 10.636 52.8776 11.464V16H49.9976V10.888C49.9976 10.108 49.9256 9.544 49.7816 9.196C49.6376 8.836 49.3676 8.656 48.9716 8.656C48.4556 8.656 48.0416 8.956 47.7296 9.556C47.4176 10.156 47.2616 10.924 47.2616 11.86V16H44.3816V6.496H47.2616V6.856C47.2616 7.144 47.1716 7.45 46.9916 7.774C46.8956 7.942 46.8476 8.086 46.8476 8.206C46.8476 8.302 46.8896 8.368 46.9736 8.404C46.9976 8.416 47.0276 8.422 47.0636 8.422C47.1356 8.422 47.1896 8.398 47.2256 8.35C47.2736 8.29 47.3096 8.23 47.3336 8.17C47.9456 6.862 48.8096 6.208 49.9256 6.208C50.5136 6.208 50.9936 6.37 51.3656 6.694C51.7496 7.006 52.0136 7.438 52.1576 7.99C52.2176 8.17 52.3376 8.26 52.5176 8.26C52.6136 8.26 52.6856 8.242 52.7336 8.206C52.7816 8.17 52.8296 8.11 52.8776 8.026C53.1656 7.45 53.5556 7.006 54.0476 6.694C54.5516 6.37 55.0856 6.208 55.6496 6.208ZM71.0656 6.208C72.9616 6.208 73.9096 7.504 73.9096 10.096V16H71.0296V10.672C71.0296 9.952 70.9336 9.436 70.7416 9.124C70.5496 8.812 70.2256 8.656 69.7696 8.656C69.3496 8.656 68.9956 8.92 68.7076 9.448C68.4316 9.964 68.2936 10.636 68.2936 11.464V16H65.4136V10.888C65.4136 10.108 65.3416 9.544 65.1976 9.196C65.0536 8.836 64.7836 8.656 64.3876 8.656C63.8716 8.656 63.4576 8.956 63.1456 9.556C62.8336 10.156 62.6776 10.924 62.6776 11.86V16H59.7976V6.496H62.6776V6.856C62.6776 7.144 62.5876 7.45 62.4076 7.774C62.3116 7.942 62.2636 8.086 62.2636 8.206C62.2636 8.302 62.3056 8.368 62.3896 8.404C62.4136 8.416 62.4436 8.422 62.4796 8.422C62.5516 8.422 62.6056 8.398 62.6416 8.35C62.6896 8.29 62.7256 8.23 62.7496 8.17C63.3616 6.862 64.2256 6.208 65.3416 6.208C65.9296 6.208 66.4096 6.37 66.7816 6.694C67.1656 7.006 67.4296 7.438 67.5736 7.99C67.6336 8.17 67.7536 8.26 67.9336 8.26C68.0296 8.26 68.1016 8.242 68.1496 8.206C68.1976 8.17 68.2456 8.11 68.2936 8.026C68.5816 7.45 68.9716 7.006 69.4636 6.694C69.9676 6.37 70.5016 6.208 71.0656 6.208ZM84.5702 10.96C84.5702 11.356 84.5522 11.692 84.5162 11.968H77.6222C77.7182 12.58 77.9642 13.072 78.3602 13.444C78.7562 13.804 79.2482 13.984 79.8362 13.984C80.2682 13.984 80.6282 13.882 80.9162 13.678C81.2042 13.474 81.4082 13.192 81.5282 12.832H84.3902C84.1862 13.816 83.6942 14.638 82.9142 15.298C82.1342 15.958 81.1142 16.288 79.8542 16.288C78.7862 16.288 77.8682 16.066 77.1002 15.622C76.3322 15.178 75.7502 14.578 75.3542 13.822C74.9702 13.054 74.7782 12.196 74.7782 11.248C74.7782 10.264 74.9762 9.394 75.3722 8.638C75.7682 7.87 76.3442 7.276 77.1002 6.856C77.8562 6.424 78.7562 6.208 79.8002 6.208C80.6402 6.208 81.4202 6.382 82.1402 6.73C82.8722 7.078 83.4602 7.612 83.9042 8.332C84.3482 9.04 84.5702 9.916 84.5702 10.96ZM79.8542 8.44C78.6662 8.44 77.9462 9.04 77.6942 10.24H81.7442C81.6962 9.664 81.5042 9.22 81.1682 8.908C80.8322 8.596 80.3942 8.44 79.8542 8.44ZM91.5281 6.208C92.5841 6.208 93.4181 6.55 94.0301 7.234C94.6421 7.918 94.9481 8.92 94.9481 10.24V16H92.0681V11.392C92.0681 10.36 91.9481 9.646 91.7081 9.25C91.4801 8.854 91.0961 8.656 90.5561 8.656C90.1601 8.656 89.7881 8.812 89.4401 9.124C89.1041 9.436 88.8341 9.874 88.6301 10.438C88.4261 11.002 88.3241 11.638 88.3241 12.346V16H85.4441V6.496H88.3241V6.946C88.3241 7.318 88.2461 7.66 88.0901 7.972C87.9581 8.236 87.8921 8.422 87.8921 8.53C87.8921 8.626 87.9281 8.686 88.0001 8.71C88.0241 8.722 88.0541 8.728 88.0901 8.728C88.1981 8.728 88.2941 8.632 88.3781 8.44C88.6541 7.852 89.0621 7.336 89.6021 6.892C90.1421 6.436 90.7841 6.208 91.5281 6.208ZM103.019 3.04H105.899V16H103.019V15.658C103.019 15.454 103.091 15.196 103.235 14.884C103.355 14.644 103.415 14.476 103.415 14.38C103.415 14.284 103.367 14.218 103.271 14.182L103.217 14.164C103.133 14.164 103.067 14.206 103.019 14.29C102.983 14.374 102.959 14.422 102.947 14.434C102.647 15.022 102.245 15.478 101.741 15.802C101.249 16.126 100.655 16.288 99.9593 16.288C99.1073 16.288 98.3693 16.066 97.7453 15.622C97.1213 15.178 96.6413 14.578 96.3053 13.822C95.9813 13.054 95.8193 12.196 95.8193 11.248C95.8193 10.3 95.9813 9.448 96.3053 8.692C96.6413 7.924 97.1213 7.318 97.7453 6.874C98.3693 6.43 99.1073 6.208 99.9593 6.208C101.255 6.208 102.251 6.82 102.947 8.044C103.007 8.152 103.067 8.236 103.127 8.296C103.187 8.356 103.265 8.362 103.361 8.314C103.433 8.278 103.469 8.23 103.469 8.17C103.469 8.086 103.433 7.978 103.361 7.846C103.289 7.714 103.241 7.624 103.217 7.576C103.085 7.312 103.019 7.048 103.019 6.784V3.04ZM100.787 13.84C101.447 13.84 101.981 13.588 102.389 13.084C102.809 12.58 103.019 11.968 103.019 11.248C103.019 10.528 102.809 9.916 102.389 9.412C101.981 8.908 101.447 8.656 100.787 8.656C100.103 8.656 99.5813 8.902 99.2213 9.394C98.8733 9.886 98.6993 10.504 98.6993 11.248C98.6993 11.992 98.8733 12.61 99.2213 13.102C99.5813 13.594 100.103 13.84 100.787 13.84ZM106.911 13.462C106.911 12.454 107.253 11.71 107.937 11.23C108.621 10.75 109.527 10.474 110.655 10.402C111.039 10.378 111.309 10.366 111.465 10.366C112.221 10.33 112.755 10.27 113.067 10.186C113.379 10.102 113.535 9.91 113.535 9.61C113.535 9.274 113.415 8.986 113.175 8.746C112.935 8.494 112.515 8.368 111.915 8.368C111.315 8.368 110.871 8.482 110.583 8.71C110.307 8.938 110.127 9.256 110.043 9.664H107.199C107.355 8.488 107.889 7.618 108.801 7.054C109.725 6.49 110.787 6.208 111.987 6.208C113.319 6.208 114.387 6.532 115.191 7.18C116.007 7.816 116.415 9.004 116.415 10.744V16H113.535V15.514C113.535 15.25 113.601 14.986 113.733 14.722C113.745 14.686 113.781 14.608 113.841 14.488C113.901 14.368 113.931 14.266 113.931 14.182C113.931 14.11 113.901 14.062 113.841 14.038L113.733 14.002C113.637 14.002 113.571 14.044 113.535 14.128C113.499 14.212 113.475 14.26 113.463 14.272C113.151 14.896 112.719 15.388 112.167 15.748C111.627 16.108 110.979 16.288 110.223 16.288C109.599 16.288 109.029 16.162 108.513 15.91C108.009 15.658 107.613 15.322 107.325 14.902C107.049 14.47 106.911 13.99 106.911 13.462ZM113.535 11.392C113.319 11.608 113.061 11.752 112.761 11.824C112.473 11.884 111.903 11.968 111.051 12.076C110.679 12.112 110.373 12.226 110.133 12.418C109.905 12.61 109.791 12.892 109.791 13.264C109.791 13.588 109.905 13.84 110.133 14.02C110.373 14.2 110.667 14.29 111.015 14.29C111.327 14.29 111.675 14.194 112.059 14.002C112.455 13.81 112.797 13.498 113.085 13.066C113.385 12.634 113.535 12.076 113.535 11.392ZM116.836 8.8V6.496H116.962C117.466 6.496 117.88 6.346 118.204 6.046C118.54 5.734 118.708 5.302 118.708 4.75V3.904H121.588V4.66C121.588 5.428 121.132 5.968 120.22 6.28C120.076 6.328 120.016 6.424 120.04 6.568C120.088 6.7 120.196 6.742 120.364 6.694C120.64 6.622 120.856 6.574 121.012 6.55C121.168 6.514 121.39 6.496 121.678 6.496H124.036V8.8H121.444V12.76C121.444 13.084 121.456 13.306 121.48 13.426C121.516 13.546 121.588 13.624 121.696 13.66C121.804 13.684 122.008 13.696 122.308 13.696H124.036V16H121.372C120.712 16 120.178 15.916 119.77 15.748C119.362 15.568 119.056 15.268 118.852 14.848C118.66 14.428 118.564 13.84 118.564 13.084V8.8H116.836ZM125.329 5.344V3.04H128.209V5.344H125.329ZM125.329 6.496H128.209V16H125.329V6.496ZM134.117 6.208C135.137 6.208 136.025 6.436 136.781 6.892C137.549 7.336 138.137 7.942 138.545 8.71C138.953 9.478 139.157 10.324 139.157 11.248C139.157 12.172 138.953 13.018 138.545 13.786C138.137 14.554 137.549 15.166 136.781 15.622C136.025 16.066 135.137 16.288 134.117 16.288C133.097 16.288 132.203 16.066 131.435 15.622C130.679 15.166 130.097 14.554 129.689 13.786C129.281 13.018 129.077 12.172 129.077 11.248C129.077 10.324 129.281 9.478 129.689 8.71C130.097 7.942 130.679 7.336 131.435 6.892C132.203 6.436 133.097 6.208 134.117 6.208ZM134.117 13.84C134.801 13.84 135.329 13.594 135.701 13.102C136.085 12.61 136.277 11.992 136.277 11.248C136.277 10.504 136.085 9.886 135.701 9.394C135.329 8.902 134.801 8.656 134.117 8.656C133.433 8.656 132.899 8.902 132.515 9.394C132.143 9.886 131.957 10.504 131.957 11.248C131.957 11.992 132.143 12.61 132.515 13.102C132.899 13.594 133.433 13.84 134.117 13.84ZM146.108 6.208C147.164 6.208 147.998 6.55 148.61 7.234C149.222 7.918 149.528 8.92 149.528 10.24V16H146.648V11.392C146.648 10.36 146.528 9.646 146.288 9.25C146.06 8.854 145.676 8.656 145.136 8.656C144.74 8.656 144.368 8.812 144.02 9.124C143.684 9.436 143.414 9.874 143.21 10.438C143.006 11.002 142.904 11.638 142.904 12.346V16H140.024V6.496H142.904V6.946C142.904 7.318 142.826 7.66 142.67 7.972C142.538 8.236 142.472 8.422 142.472 8.53C142.472 8.626 142.508 8.686 142.58 8.71C142.604 8.722 142.634 8.728 142.67 8.728C142.778 8.728 142.874 8.632 142.958 8.44C143.234 7.852 143.642 7.336 144.182 6.892C144.722 6.436 145.364 6.208 146.108 6.208ZM153.243 12.688C153.255 13.108 153.399 13.456 153.675 13.732C153.963 13.996 154.425 14.128 155.061 14.128C155.649 14.128 156.075 14.05 156.339 13.894C156.603 13.738 156.735 13.528 156.735 13.264C156.735 13 156.543 12.808 156.159 12.688C155.787 12.556 155.157 12.442 154.269 12.346C152.817 12.178 151.857 11.812 151.389 11.248C150.921 10.672 150.687 10.024 150.687 9.304C150.687 8.752 150.855 8.242 151.191 7.774C151.527 7.306 152.025 6.928 152.685 6.64C153.345 6.352 154.131 6.208 155.043 6.208C156.255 6.208 157.251 6.49 158.031 7.054C158.823 7.606 159.255 8.428 159.327 9.52H156.483C156.447 8.752 155.949 8.368 154.989 8.368C154.497 8.368 154.137 8.44 153.909 8.584C153.681 8.728 153.567 8.926 153.567 9.178C153.567 9.37 153.681 9.532 153.909 9.664C154.149 9.796 154.623 9.892 155.331 9.952C156.723 10.084 157.785 10.396 158.517 10.888C159.249 11.368 159.615 12.1 159.615 13.084C159.615 13.696 159.429 14.248 159.057 14.74C158.685 15.22 158.151 15.598 157.455 15.874C156.759 16.15 155.937 16.288 154.989 16.288C153.549 16.288 152.439 15.976 151.659 15.352C150.879 14.716 150.459 13.828 150.399 12.688H153.243Z" fill="#0D0D0D"/>
<rect x="0.152344" width="160" height="18" fill="#B5B5B5"/>
<g clip-path="url(#clip0_215_3772)">
<rect x="0.152344" y="38" width="132" height="132.001" rx="16" fill="#B5B5B5"/>
<rect x="144.152" y="38" width="207" height="16" fill="#B5B5B5"/>
<rect x="144.152" y="58" width="110" height="16" fill="#B5B5B5"/>
<g clip-path="url(#clip1_215_3772)">
<rect x="144.152" y="84" width="45" height="14" fill="#B5B5B5"/>
<path d="M202.388 91.7083L202.394 91.7025L202.399 91.6966C202.49 91.6004 202.561 91.4872 202.607 91.3635C202.654 91.2399 202.675 91.1082 202.67 90.9762C202.666 90.8442 202.635 90.7143 202.58 90.5943C202.526 90.4766 202.45 90.3705 202.355 90.282L201.335 89.2881V87.819C201.335 87.5538 201.23 87.2994 201.042 87.1119C200.855 86.9244 200.6 86.819 200.335 86.819H198.888L197.865 85.7919C197.865 85.7918 197.865 85.7917 197.865 85.7915C197.772 85.698 197.662 85.6237 197.54 85.573C197.418 85.5222 197.287 85.4961 197.155 85.4961C197.023 85.4961 196.893 85.5222 196.771 85.573C196.649 85.6238 196.538 85.6982 196.445 85.7919L196.445 85.7919L196.442 85.795L195.444 86.819H193.975C193.71 86.819 193.456 86.9243 193.268 87.1119C193.081 87.2994 192.975 87.5538 192.975 87.819V89.2881L191.951 90.2859L191.951 90.2859L191.948 90.289C191.854 90.382 191.78 90.4926 191.729 90.6144C191.678 90.7363 191.652 90.867 191.652 90.999C191.652 91.131 191.678 91.2617 191.729 91.3836C191.78 91.5053 191.854 91.6158 191.948 91.7087C191.948 91.7088 191.948 91.7089 191.948 91.709L192.975 92.7317V94.179C192.975 94.4442 193.081 94.6986 193.268 94.8861C193.456 95.0736 193.71 95.179 193.975 95.179H195.448L196.47 96.2061C196.47 96.2062 196.47 96.2063 196.47 96.2063C196.563 96.2999 196.674 96.3743 196.796 96.425C196.918 96.4758 197.048 96.5019 197.18 96.5019C197.312 96.5019 197.443 96.4758 197.565 96.425C197.687 96.3743 197.797 96.2999 197.89 96.2063C197.89 96.2063 197.89 96.2062 197.89 96.2061L198.913 95.179H200.36C200.625 95.179 200.88 95.0736 201.067 94.8861C201.255 94.6986 201.36 94.4442 201.36 94.179V92.7317L202.388 91.7083ZM196.354 92.249L196.171 92.0652L196.355 92.249L196.354 92.249ZM198.854 89.7504L198.519 90.0852L198.855 89.7486L198.855 89.749L198.854 89.7504Z" fill="#B5B5B5" stroke="white"/>
</g>
<rect x="144.152" y="106" width="75" height="14" fill="#B5B5B5"/>
</g>
<g clip-path="url(#clip2_215_3772)">
<rect x="0.152344" y="178" width="132" height="132.001" rx="16" fill="#B5B5B5"/>
<rect x="144.152" y="178" width="207" height="16" fill="#B5B5B5"/>
<rect x="144.152" y="198" width="110" height="16" fill="#B5B5B5"/>
<g clip-path="url(#clip3_215_3772)">
<rect x="144.152" y="224" width="45" height="14" fill="#B5B5B5"/>
<path d="M202.388 231.708L202.394 231.703L202.399 231.697C202.49 231.6 202.561 231.487 202.607 231.364C202.654 231.24 202.675 231.108 202.67 230.976C202.666 230.844 202.635 230.714 202.58 230.594C202.526 230.477 202.45 230.371 202.355 230.282L201.335 229.288V227.819C201.335 227.554 201.23 227.299 201.042 227.112C200.855 226.924 200.6 226.819 200.335 226.819H198.888L197.865 225.792C197.865 225.792 197.865 225.792 197.865 225.792C197.772 225.698 197.662 225.624 197.54 225.573C197.418 225.522 197.287 225.496 197.155 225.496C197.023 225.496 196.893 225.522 196.771 225.573C196.649 225.624 196.538 225.698 196.445 225.792L196.445 225.792L196.442 225.795L195.444 226.819H193.975C193.71 226.819 193.456 226.924 193.268 227.112C193.081 227.299 192.975 227.554 192.975 227.819V229.288L191.951 230.286L191.951 230.286L191.948 230.289C191.854 230.382 191.78 230.493 191.729 230.614C191.678 230.736 191.652 230.867 191.652 230.999C191.652 231.131 191.678 231.262 191.729 231.384C191.78 231.505 191.854 231.616 191.948 231.709C191.948 231.709 191.948 231.709 191.948 231.709L192.975 232.732V234.179C192.975 234.444 193.081 234.699 193.268 234.886C193.456 235.074 193.71 235.179 193.975 235.179H195.448L196.47 236.206C196.47 236.206 196.47 236.206 196.47 236.206C196.563 236.3 196.674 236.374 196.796 236.425C196.918 236.476 197.048 236.502 197.18 236.502C197.312 236.502 197.443 236.476 197.565 236.425C197.687 236.374 197.797 236.3 197.89 236.206C197.89 236.206 197.89 236.206 197.89 236.206L198.913 235.179H200.36C200.625 235.179 200.88 235.074 201.067 234.886C201.255 234.699 201.36 234.444 201.36 234.179V232.732L202.388 231.708ZM196.354 232.249L196.171 232.065L196.355 232.249L196.354 232.249ZM198.854 229.75L198.519 230.085L198.855 229.749L198.855 229.749L198.854 229.75Z" fill="#B5B5B5" stroke="white"/>
</g>
<rect x="144.152" y="246" width="75" height="14" fill="#B5B5B5"/>
</g>
<defs>
<clipPath id="clip0_215_3772">
<rect width="351" height="132.001" fill="white" transform="translate(0.152344 38)"/>
</clipPath>
<clipPath id="clip1_215_3772">
<rect width="207" height="18" fill="white" transform="translate(144.152 82)"/>
</clipPath>
<clipPath id="clip2_215_3772">
<rect width="351" height="132.001" fill="white" transform="translate(0.152344 178)"/>
</clipPath>
<clipPath id="clip3_215_3772">
<rect width="207" height="18" fill="white" transform="translate(144.152 222)"/>
</clipPath>
</defs>
</svg>
