<svg width="24" height="24" viewBox="0 0 24 24" fill="none" xmlns="http://www.w3.org/2000/svg">
<path d="M18.75 4.5H5.25C4.00875 4.5 3 5.50875 3 6.75V17.25C3 18.4913 4.00875 19.5 5.25 19.5H18.75C19.9913 19.5 21 18.4913 21 17.25V6.75C21 5.50875 19.9913 4.5 18.75 4.5ZM19.5 17.25C19.5 17.6625 19.1625 18 18.75 18H5.25C4.8375 18 4.5 17.6625 4.5 17.25V6.75C4.5 6.3375 4.8375 6 5.25 6H18.75C19.1625 6 19.5 6.3375 19.5 6.75V17.25Z" fill="#0D0D0D"/>
<path d="M15.75 12C15.75 12.4125 15.4125 12.75 15 12.75H12.75V15C12.75 15.4125 12.4125 15.75 12 15.75C11.5875 15.75 11.25 15.4125 11.25 15V12.75H9C8.5875 12.75 8.25 12.4125 8.25 12C8.25 11.5875 8.5875 11.25 9 11.25H11.25V9C11.25 8.5875 11.5875 8.25 12 8.25C12.4125 8.25 12.75 8.5875 12.75 9V11.25H15C15.4125 11.25 15.75 11.5875 15.75 12Z" fill="#0D0D0D"/>
</svg>
