<svg width="323" height="22" viewBox="0 0 323 22" fill="none" xmlns="http://www.w3.org/2000/svg">
<path d="M2.62234 15H1.32234V5.9H2.62234V15ZM6.0059 15H4.7709V5.9H6.0059V15ZM15.4787 8.5H16.7527L14.0877 14.857V16.04C14.0877 16.95 13.6327 17.405 12.7227 17.405H10.5777V16.3H12.3977C12.7877 16.3 12.9177 16.17 12.9177 15.78V14.87L10.1877 8.5H11.5007L13.5287 13.297L15.4787 8.5ZM22.5855 15.13C21.3505 15.13 20.4405 14.311 20.4405 13.206C20.4405 11.724 21.7535 11.282 22.8065 11.191L24.6005 11.048V10.84C24.6005 9.93 24.0805 9.41 23.2485 9.41H23.1445C22.4685 9.41 21.8835 9.735 21.8055 10.385H20.5705C20.6485 9.189 21.7275 8.37 23.1965 8.37C24.9255 8.37 25.8355 9.514 25.8355 10.84V13.57C25.8355 13.96 25.8355 14.545 25.9005 15H24.7305C24.6655 14.675 24.6655 14.025 24.6655 13.96C24.4055 14.545 23.6255 15.13 22.5855 15.13ZM22.7285 14.09H22.8325C23.6255 14.09 24.6005 13.44 24.6005 12.66V11.997L22.9755 12.127C22.2215 12.192 21.6755 12.556 21.6755 13.154C21.6755 13.687 22.1175 14.09 22.7285 14.09ZM34.4599 11.581L32.0289 13.83H36.7219V15H30.5729V13.622L33.5109 10.827C34.3169 10.06 35.3179 9.384 35.3179 8.266C35.3179 7.408 34.6419 6.875 33.7839 6.875H33.6539C32.6529 6.875 31.9639 7.616 31.9639 8.617H30.6639C30.6769 6.875 31.9769 5.77 33.7189 5.77C35.2789 5.77 36.5919 6.641 36.5919 8.201C36.5919 9.644 35.5129 10.593 34.4599 11.581ZM42.7715 15H41.5365V5.9H42.7715V9.41C43.1615 8.825 43.8115 8.37 44.8515 8.37C46.3465 8.37 47.1915 9.28 47.1915 10.645V15H45.9565V10.905C45.9565 9.995 45.5665 9.41 44.6435 9.41H44.5395C43.6165 9.41 42.7715 10.125 42.7715 11.36V15ZM51.7555 15.13C50.1435 15.13 48.6875 14.012 48.6875 11.737C48.6875 9.488 50.1825 8.37 51.7165 8.37C53.4065 8.37 54.4725 9.54 54.4725 11.23V11.945H49.9225C50.0005 13.427 50.9495 14.09 51.7425 14.09H51.8465C52.4835 14.09 53.0945 13.765 53.2245 13.076H54.4595C54.2255 14.389 53.0945 15.13 51.7555 15.13ZM50.0005 10.97H53.2375C53.1855 9.839 52.5095 9.41 51.7685 9.41H51.6645C50.9885 9.41 50.2345 9.813 50.0005 10.97ZM58.2177 15.13C56.7617 15.13 56.0077 14.155 56.0077 12.79V8.5H57.2427V12.53C57.2427 13.57 57.6717 14.09 58.5557 14.09H58.6597C59.4917 14.09 60.2977 13.31 60.2977 12.01V8.5H61.5327V15H60.2977V13.765C60.0507 14.48 59.3487 15.13 58.2177 15.13ZM64.7217 15H63.4867V8.5H64.6567V9.93C64.9167 8.955 65.6967 8.435 66.5417 8.435H67.1267V9.631H66.6067C65.4367 9.631 64.7217 10.411 64.7217 11.711V15ZM70.8493 15.13C69.2373 15.13 67.7813 14.012 67.7813 11.737C67.7813 9.488 69.2763 8.37 70.8103 8.37C72.5003 8.37 73.5663 9.54 73.5663 11.23V11.945H69.0163C69.0943 13.427 70.0433 14.09 70.8363 14.09H70.9403C71.5773 14.09 72.1883 13.765 72.3183 13.076H73.5533C73.3193 14.389 72.1883 15.13 70.8493 15.13ZM69.0943 10.97H72.3313C72.2793 9.839 71.6033 9.41 70.8623 9.41H70.7583C70.0823 9.41 69.3283 9.813 69.0943 10.97ZM77.3374 15.13C75.6084 15.13 74.6724 14.22 74.6724 12.985H75.9074C75.9724 13.765 76.5834 14.09 77.3504 14.09H77.4544C78.1304 14.09 78.6634 13.765 78.6634 13.245C78.6634 12.829 78.4294 12.543 77.7794 12.413L76.8304 12.231C75.7774 12.023 74.9324 11.477 74.9324 10.372C74.9324 9.072 76.0894 8.37 77.3894 8.37C79.0924 8.37 79.9634 9.28 79.9634 10.515H78.7284C78.6634 9.93 78.2994 9.41 77.4544 9.41H77.3504C76.6224 9.41 76.1674 9.787 76.1674 10.242C76.1674 10.697 76.4274 10.944 77.0774 11.074L78.1044 11.282C79.0924 11.477 79.8984 12.01 79.8984 13.18C79.8984 14.35 78.8454 15.13 77.3374 15.13ZM85.9879 11.23H84.5839V9.826H85.9879V11.23ZM92.5052 15H91.2052V5.9H92.5052V15ZM98.3197 15H96.7597C95.8497 15 95.3297 14.48 95.3297 13.57V9.566H93.8997V8.5H95.3297V6.394H96.5647V8.5H98.1247V9.566H96.5647V13.375C96.5647 13.765 96.6947 13.895 97.0847 13.895H98.3197V15ZM104.129 7.33H102.764V5.9H104.129V7.33ZM104.064 15H102.829V8.5H104.064V15ZM108.187 15.13C106.458 15.13 105.522 14.22 105.522 12.985H106.757C106.822 13.765 107.433 14.09 108.2 14.09H108.304C108.98 14.09 109.513 13.765 109.513 13.245C109.513 12.829 109.279 12.543 108.629 12.413L107.68 12.231C106.627 12.023 105.782 11.477 105.782 10.372C105.782 9.072 106.939 8.37 108.239 8.37C109.942 8.37 110.813 9.28 110.813 10.515H109.578C109.513 9.93 109.149 9.41 108.304 9.41H108.2C107.472 9.41 107.017 9.787 107.017 10.242C107.017 10.697 107.277 10.944 107.927 11.074L108.954 11.282C109.942 11.477 110.748 12.01 110.748 13.18C110.748 14.35 109.695 15.13 108.187 15.13ZM117.293 15.13C116.058 15.13 115.148 14.311 115.148 13.206C115.148 11.724 116.461 11.282 117.514 11.191L119.308 11.048V10.84C119.308 9.93 118.788 9.41 117.956 9.41H117.852C117.176 9.41 116.591 9.735 116.513 10.385H115.278C115.356 9.189 116.435 8.37 117.903 8.37C119.633 8.37 120.543 9.514 120.543 10.84V13.57C120.543 13.96 120.543 14.545 120.608 15H119.438C119.373 14.675 119.373 14.025 119.373 13.96C119.113 14.545 118.333 15.13 117.293 15.13ZM117.436 14.09H117.54C118.333 14.09 119.308 13.44 119.308 12.66V11.997L117.683 12.127C116.929 12.192 116.383 12.556 116.383 13.154C116.383 13.687 116.825 14.09 117.436 14.09ZM126.84 15H125.605V5.9H126.84V15ZM131.508 15.13C129.753 15.13 128.388 13.765 128.388 11.75C128.388 9.735 129.753 8.37 131.508 8.37C133.263 8.37 134.628 9.735 134.628 11.75C134.628 13.765 133.263 15.13 131.508 15.13ZM131.456 14.09H131.56C132.613 14.09 133.393 13.245 133.393 11.75C133.393 10.255 132.613 9.41 131.56 9.41H131.456C130.403 9.41 129.623 10.255 129.623 11.75C129.623 13.245 130.403 14.09 131.456 14.09ZM137.415 15H136.18V8.5H137.415V9.41C137.805 8.825 138.455 8.37 139.495 8.37C140.99 8.37 141.835 9.28 141.835 10.645V15H140.6V10.905C140.6 9.995 140.21 9.41 139.287 9.41H139.183C138.26 9.41 137.415 10.125 137.415 11.36V15ZM146.23 17.86C144.41 17.86 143.344 17.015 143.214 15.845H144.449C144.579 16.495 145.281 16.82 146.165 16.82H146.295C147.4 16.82 148.18 16.235 148.18 14.87V13.96C147.855 14.48 147.205 15 146.23 15C144.735 15 143.344 13.96 143.344 11.685C143.344 9.41 144.696 8.37 146.23 8.37C147.205 8.37 147.92 8.89 148.18 9.41V8.5H149.415V15C149.415 16.625 148.245 17.86 146.23 17.86ZM146.282 13.96H146.386C147.283 13.96 148.18 13.115 148.18 11.685C148.18 10.255 147.348 9.41 146.451 9.41H146.347C145.424 9.41 144.579 10.06 144.579 11.685C144.579 13.31 145.359 13.96 146.282 13.96ZM157.216 15.13C155.604 15.13 154.148 14.012 154.148 11.737C154.148 9.488 155.643 8.37 157.177 8.37C158.867 8.37 159.933 9.54 159.933 11.23V11.945H155.383C155.461 13.427 156.41 14.09 157.203 14.09H157.307C157.944 14.09 158.555 13.765 158.685 13.076H159.92C159.686 14.389 158.555 15.13 157.216 15.13ZM155.461 10.97H158.698C158.646 9.839 157.97 9.41 157.229 9.41H157.125C156.449 9.41 155.695 9.813 155.461 10.97ZM163.704 15.13C161.975 15.13 161.039 14.22 161.039 12.985H162.274C162.339 13.765 162.95 14.09 163.717 14.09H163.821C164.497 14.09 165.03 13.765 165.03 13.245C165.03 12.829 164.796 12.543 164.146 12.413L163.197 12.231C162.144 12.023 161.299 11.477 161.299 10.372C161.299 9.072 162.456 8.37 163.756 8.37C165.459 8.37 166.33 9.28 166.33 10.515H165.095C165.03 9.93 164.666 9.41 163.821 9.41H163.717C162.989 9.41 162.534 9.787 162.534 10.242C162.534 10.697 162.794 10.944 163.444 11.074L164.471 11.282C165.459 11.477 166.265 12.01 166.265 13.18C166.265 14.35 165.212 15.13 163.704 15.13ZM171.483 15H169.923C169.013 15 168.493 14.48 168.493 13.57V9.566H167.063V8.5H168.493V6.394H169.728V8.5H171.288V9.566H169.728V13.375C169.728 13.765 169.858 13.895 170.248 13.895H171.483V15ZM174.574 15.13C173.339 15.13 172.429 14.311 172.429 13.206C172.429 11.724 173.742 11.282 174.795 11.191L176.589 11.048V10.84C176.589 9.93 176.069 9.41 175.237 9.41H175.133C174.457 9.41 173.872 9.735 173.794 10.385H172.559C172.637 9.189 173.716 8.37 175.185 8.37C176.914 8.37 177.824 9.514 177.824 10.84V13.57C177.824 13.96 177.824 14.545 177.889 15H176.719C176.654 14.675 176.654 14.025 176.654 13.96C176.394 14.545 175.614 15.13 174.574 15.13ZM174.717 14.09H174.821C175.614 14.09 176.589 13.44 176.589 12.66V11.997L174.964 12.127C174.21 12.192 173.664 12.556 173.664 13.154C173.664 13.687 174.106 14.09 174.717 14.09ZM183.092 15.13C182.182 15.13 181.272 14.675 180.947 14.09V15H179.712V5.9H180.947V9.41C181.272 8.825 182.052 8.37 182.962 8.37C184.587 8.37 185.887 9.605 185.887 11.75C185.887 13.895 184.717 15.13 183.092 15.13ZM182.78 14.09H182.884C183.872 14.09 184.652 13.31 184.652 11.75C184.652 10.19 183.872 9.41 182.884 9.41H182.78C181.857 9.41 180.947 10.19 180.947 11.75C180.947 13.31 181.857 14.09 182.78 14.09ZM188.691 15H187.456V5.9H188.691V15ZM191.943 7.33H190.578V5.9H191.943V7.33ZM191.878 15H190.643V8.5H191.878V15ZM196 15.13C194.271 15.13 193.335 14.22 193.335 12.985H194.57C194.635 13.765 195.246 14.09 196.013 14.09H196.117C196.793 14.09 197.326 13.765 197.326 13.245C197.326 12.829 197.092 12.543 196.442 12.413L195.493 12.231C194.44 12.023 193.595 11.477 193.595 10.372C193.595 9.072 194.752 8.37 196.052 8.37C197.755 8.37 198.626 9.28 198.626 10.515H197.391C197.326 9.93 196.962 9.41 196.117 9.41H196.013C195.285 9.41 194.83 9.787 194.83 10.242C194.83 10.697 195.09 10.944 195.74 11.074L196.767 11.282C197.755 11.477 198.561 12.01 198.561 13.18C198.561 14.35 197.508 15.13 196 15.13ZM201.412 15H200.177V5.9H201.412V9.41C201.802 8.825 202.452 8.37 203.492 8.37C204.987 8.37 205.832 9.28 205.832 10.645V15H204.597V10.905C204.597 9.995 204.207 9.41 203.284 9.41H203.18C202.257 9.41 201.412 10.125 201.412 11.36V15ZM210.396 15.13C208.784 15.13 207.328 14.012 207.328 11.737C207.328 9.488 208.823 8.37 210.357 8.37C212.047 8.37 213.113 9.54 213.113 11.23V11.945H208.563C208.641 13.427 209.59 14.09 210.383 14.09H210.487C211.124 14.09 211.735 13.765 211.865 13.076H213.1C212.866 14.389 211.735 15.13 210.396 15.13ZM208.641 10.97H211.878C211.826 9.839 211.15 9.41 210.409 9.41H210.305C209.629 9.41 208.875 9.813 208.641 10.97ZM217.131 15.13C215.506 15.13 214.336 13.895 214.336 11.75C214.336 9.605 215.636 8.37 217.261 8.37C218.171 8.37 218.951 8.825 219.276 9.41V5.9H220.511V15H219.276V14.09C218.951 14.675 218.041 15.13 217.131 15.13ZM217.339 14.09H217.443C218.366 14.09 219.276 13.31 219.276 11.75C219.276 10.19 218.366 9.41 217.443 9.41H217.339C216.351 9.41 215.571 10.19 215.571 11.75C215.571 13.31 216.351 14.09 217.339 14.09ZM229.081 15H227.521C226.611 15 226.091 14.48 226.091 13.57V9.566H224.661V8.5H226.091V6.394H227.326V8.5H228.886V9.566H227.326V13.375C227.326 13.765 227.456 13.895 227.846 13.895H229.081V15ZM231.652 15H230.417V5.9H231.652V9.41C232.042 8.825 232.692 8.37 233.732 8.37C235.227 8.37 236.072 9.28 236.072 10.645V15H234.837V10.905C234.837 9.995 234.447 9.41 233.524 9.41H233.42C232.497 9.41 231.652 10.125 231.652 11.36V15ZM239.713 15.13C238.478 15.13 237.568 14.311 237.568 13.206C237.568 11.724 238.881 11.282 239.934 11.191L241.728 11.048V10.84C241.728 9.93 241.208 9.41 240.376 9.41H240.272C239.596 9.41 239.011 9.735 238.933 10.385H237.698C237.776 9.189 238.855 8.37 240.324 8.37C242.053 8.37 242.963 9.514 242.963 10.84V13.57C242.963 13.96 242.963 14.545 243.028 15H241.858C241.793 14.675 241.793 14.025 241.793 13.96C241.533 14.545 240.753 15.13 239.713 15.13ZM239.856 14.09H239.96C240.753 14.09 241.728 13.44 241.728 12.66V11.997L240.103 12.127C239.349 12.192 238.803 12.556 238.803 13.154C238.803 13.687 239.245 14.09 239.856 14.09ZM248.442 15H246.882C245.972 15 245.452 14.48 245.452 13.57V9.566H244.022V8.5H245.452V6.394H246.687V8.5H248.247V9.566H246.687V13.375C246.687 13.765 246.817 13.895 247.207 13.895H248.442V15ZM251.221 15H249.661V13.44H251.221V15ZM254.496 15H252.936V13.44H254.496V15ZM257.772 15H256.212V13.44H257.772V15Z" fill="#525252"/>
<rect x="0.152344" y="4" width="258.477" height="14" fill="#B5B5B5"/>
<path d="M271.234 15.13C273.483 15.13 274.731 13.895 274.731 12.335C274.731 10.853 273.769 10.047 272.209 9.735L270.844 9.462C270.064 9.306 269.739 9.033 269.739 8.435C269.739 7.85 270.324 7.33 271.299 7.33H271.429C272.365 7.33 273.054 7.811 273.119 8.76H274.874C274.874 7.031 273.639 5.77 271.429 5.77C269.193 5.77 267.984 7.135 267.984 8.5C267.984 9.852 268.699 10.788 270.324 11.126L271.949 11.464C272.755 11.633 272.976 11.945 272.976 12.465C272.976 13.05 272.469 13.57 271.494 13.57H271.364C269.999 13.57 269.349 12.855 269.284 11.945H267.529C267.594 13.83 268.738 15.13 271.234 15.13ZM278.733 15.13C280.358 15.13 281.359 14.22 281.671 12.946H279.994C279.877 13.388 279.487 13.765 278.85 13.765H278.746C278.044 13.765 277.342 13.18 277.277 12.283H281.671C281.684 12.075 281.697 11.867 281.697 11.672C281.697 9.787 280.683 8.37 278.733 8.37C276.783 8.37 275.639 9.8 275.639 11.75C275.639 13.895 277.108 15.13 278.733 15.13ZM277.277 10.983C277.316 10.203 277.914 9.735 278.616 9.735H278.72C279.422 9.735 280.02 10.203 280.059 10.983H277.277ZM285.569 15.13C287.194 15.13 288.195 14.22 288.507 12.946H286.83C286.713 13.388 286.323 13.765 285.686 13.765H285.582C284.88 13.765 284.178 13.18 284.113 12.283H288.507C288.52 12.075 288.533 11.867 288.533 11.672C288.533 9.787 287.519 8.37 285.569 8.37C283.619 8.37 282.475 9.8 282.475 11.75C282.475 13.895 283.944 15.13 285.569 15.13ZM284.113 10.983C284.152 10.203 284.75 9.735 285.452 9.735H285.556C286.258 9.735 286.856 10.203 286.895 10.983H284.113ZM294.153 15V11.386C294.153 10.476 294.764 9.8 295.544 9.8H295.648C296.35 9.8 296.662 10.255 296.662 11.1V15H298.352V11.386C298.352 10.476 298.963 9.8 299.743 9.8H299.847C300.549 9.8 300.848 10.255 300.848 11.1V15H302.538V10.905C302.538 9.475 301.914 8.37 300.224 8.37C299.405 8.37 298.573 8.695 298.079 9.488C297.715 8.747 297 8.37 296.09 8.37C295.362 8.37 294.608 8.682 294.153 9.423V8.5H292.463V15H294.153ZM306.832 15.13C308.782 15.13 310.082 13.7 310.082 11.75C310.082 9.8 308.782 8.37 306.832 8.37C304.882 8.37 303.582 9.8 303.582 11.75C303.582 13.7 304.882 15.13 306.832 15.13ZM306.78 13.765C305.87 13.765 305.285 13.024 305.285 11.75C305.285 10.476 305.87 9.735 306.78 9.735H306.884C307.794 9.735 308.379 10.476 308.379 11.75C308.379 13.024 307.794 13.765 306.884 13.765H306.78ZM312.879 15V11.62C312.879 10.515 313.399 9.995 314.504 9.995H315.089V8.435H314.764C313.789 8.435 313.139 8.955 312.879 9.8V8.5H311.189V15H312.879ZM318.534 15.13C320.159 15.13 321.16 14.22 321.472 12.946H319.795C319.678 13.388 319.288 13.765 318.651 13.765H318.547C317.845 13.765 317.143 13.18 317.078 12.283H321.472C321.485 12.075 321.498 11.867 321.498 11.672C321.498 9.787 320.484 8.37 318.534 8.37C316.584 8.37 315.44 9.8 315.44 11.75C315.44 13.895 316.909 15.13 318.534 15.13ZM317.078 10.983C317.117 10.203 317.715 9.735 318.417 9.735H318.521C319.223 9.735 319.821 10.203 319.86 10.983H317.078Z" fill="#0D0D0D"/>
<path d="M267.152 16.3H322.031V16.95H267.152V16.3Z" fill="#0D0D0D"/>
<rect x="267.152" y="4" width="55" height="14" fill="#B5B5B5"/>
</svg>
