<svg width="20" height="21" viewBox="0 0 20 21" fill="none" xmlns="http://www.w3.org/2000/svg">
<path fill-rule="evenodd" clip-rule="evenodd" d="M7.92226 4.16663C9.45563 3.66373 11.1193 3.73409 12.6048 4.36464C14.0903 4.9952 15.2965 6.14315 15.9999 7.59553C16.7033 9.0479 16.856 10.7061 16.4297 12.2625C16.0033 13.8189 15.0269 15.1678 13.6817 16.0591C12.3363 16.9503 10.7134 17.3233 9.114 17.1088C7.51458 16.8944 6.04722 16.1071 4.98415 14.8931C3.9211 13.679 3.33449 12.1205 3.33317 10.5067C3.3328 10.0465 2.9594 9.67371 2.49916 9.67409C2.03892 9.67446 1.66613 10.0479 1.6665 10.5081C1.66815 12.5252 2.40141 14.4734 3.73024 15.991C5.05907 17.5086 6.89326 18.4927 8.89254 18.7607C10.8918 19.0287 12.9204 18.5625 14.6021 17.4485C16.2838 16.3345 17.5042 14.6483 18.0371 12.7028C18.57 10.7573 18.3792 8.68455 17.4999 6.86909C16.6208 5.05362 15.1128 3.61868 13.256 2.83048C11.3993 2.04228 9.31958 1.95434 7.40287 2.58296C5.48616 3.21158 3.86252 4.51409 2.83317 6.24884C2.59831 6.64464 2.72879 7.1559 3.1246 7.39075C3.5204 7.62561 4.03165 7.49514 4.2665 7.09934C5.08998 5.71153 6.3889 4.66952 7.92226 4.16663Z" fill="#0D0D0D"/>
<path fill-rule="evenodd" clip-rule="evenodd" d="M3.33317 2.17407C2.87293 2.17407 2.49984 2.54717 2.49984 3.0074V6.7574C2.49984 7.21764 2.87293 7.59074 3.33317 7.59074H7.08317C7.54341 7.59074 7.9165 7.21764 7.9165 6.7574C7.9165 6.29716 7.54341 5.92407 7.08317 5.92407H4.1665V3.0074C4.1665 2.54717 3.7934 2.17407 3.33317 2.17407Z" fill="#0D0D0D"/>
</svg>
