<svg width="352" height="44" viewBox="0 0 352 44" fill="none" xmlns="http://www.w3.org/2000/svg">
<rect x="0.152344" width="351" height="1" fill="#B5B5B5"/>
<g clip-path="url(#clip0_215_3740)">
<rect x="0.152344" y="6" width="32" height="32" rx="4" fill="#B5B5B5"/>
<g clip-path="url(#clip1_215_3740)">
<path d="M51.1443 26H48.4723L45.0963 21.072L43.6243 22.624V26H41.4643V14.8H43.6243V19.824L48.3763 14.8H51.0483L46.6483 19.44L51.1443 26ZM55.1666 26.16C52.7666 26.16 51.1666 24.4 51.1666 22C51.1666 19.6 52.7666 17.84 55.1666 17.84C57.5666 17.84 59.1666 19.6 59.1666 22C59.1666 24.4 57.5666 26.16 55.1666 26.16ZM55.1026 24.48H55.2306C56.3506 24.48 57.0706 23.568 57.0706 22C57.0706 20.432 56.3506 19.52 55.2306 19.52H55.1026C53.9826 19.52 53.2626 20.432 53.2626 22C53.2626 23.568 53.9826 24.48 55.1026 24.48ZM62.9293 26H60.8493V18H62.9293V19.168C63.4093 18.368 64.3053 17.84 65.3453 17.84C67.2653 17.84 68.1293 19.12 68.1293 20.88V26H66.0493V21.12C66.0493 20.08 65.5853 19.52 64.7853 19.52H64.6573C63.6973 19.52 62.9293 20.432 62.9293 21.552V26ZM74.5771 26.16C73.4571 26.16 72.5931 25.52 72.2731 24.96V26H70.1931V14.8H72.2731V19.04C72.5931 18.48 73.4571 17.84 74.5771 17.84C76.8971 17.84 78.1291 19.84 78.1291 22C78.1291 24.16 76.8971 26.16 74.5771 26.16ZM74.0971 24.48H74.2251C75.2651 24.48 76.0491 23.504 76.0491 21.984C76.0491 20.464 75.2651 19.52 74.2251 19.52H74.0971C73.1371 19.52 72.2731 20.48 72.2731 22C72.2731 23.52 73.1371 24.48 74.0971 24.48ZM81.9625 16.96H79.7225V14.8H81.9625V16.96ZM81.8825 26H79.8025V18H81.8825V26ZM86.1012 26H84.0212V18H86.1012V19.168C86.5812 18.368 87.4772 17.84 88.5172 17.84C90.4372 17.84 91.3012 19.12 91.3012 20.88V26H89.2212V21.12C89.2212 20.08 88.7572 19.52 87.9572 19.52H87.8292C86.8692 19.52 86.1012 20.432 86.1012 21.552V26ZM95.525 16.96H93.285V14.8H95.525V16.96ZM95.445 26H93.365V18H95.445V26Z" fill="#0D0D0D"/>
<rect x="40.1523" y="12" width="80" height="20" fill="#B5B5B5"/>
<path fill-rule="evenodd" clip-rule="evenodd" d="M138.829 19.7504L140.592 21.4679C140.664 21.5352 140.723 21.6161 140.764 21.7062C140.806 21.7962 140.829 21.8936 140.832 21.9926C140.836 22.0917 140.82 22.1904 140.785 22.2831C140.75 22.3759 140.697 22.4608 140.629 22.5329L138.867 24.2879V26.7704C138.867 26.9694 138.788 27.1601 138.647 27.3008C138.506 27.4414 138.315 27.5204 138.117 27.5204H135.634L133.879 29.2829C133.809 29.3532 133.726 29.409 133.635 29.4471C133.544 29.4852 133.446 29.5048 133.347 29.5048C133.248 29.5048 133.149 29.4852 133.058 29.4471C132.967 29.409 132.884 29.3532 132.814 29.2829L131.059 27.5204H128.539C128.34 27.5204 128.149 27.4414 128.009 27.3008C127.868 27.1601 127.789 26.9694 127.789 26.7704V24.2879L126.027 22.5329C125.956 22.4632 125.9 22.3803 125.862 22.2889C125.824 22.1975 125.805 22.0995 125.805 22.0004C125.805 21.9014 125.824 21.8034 125.862 21.712C125.9 21.6206 125.956 21.5377 126.027 21.4679L127.789 19.7504V17.2304C127.789 17.0315 127.868 16.8408 128.009 16.7001C128.149 16.5595 128.34 16.4804 128.539 16.4804H131.059L132.777 14.7179C132.846 14.6476 132.929 14.5919 133.021 14.5538C133.112 14.5157 133.21 14.4961 133.309 14.4961C133.408 14.4961 133.506 14.5157 133.597 14.5538C133.689 14.5919 133.772 14.6476 133.842 14.7179L135.597 16.4804H138.079C138.278 16.4804 138.469 16.5595 138.609 16.7001C138.75 16.8408 138.829 17.0315 138.829 17.2304V19.7504ZM132.112 22.8179L135.329 19.5929C135.47 19.4533 135.66 19.3748 135.858 19.3748C136.056 19.3748 136.246 19.4533 136.387 19.5929C136.457 19.6627 136.513 19.7456 136.551 19.837C136.589 19.9284 136.609 20.0264 136.609 20.1254C136.609 20.2245 136.589 20.3225 136.551 20.4139C136.513 20.5053 136.457 20.5882 136.387 20.6579L132.637 24.4079C132.497 24.5465 132.309 24.6246 132.112 24.6254C132.013 24.626 131.915 24.6071 131.824 24.5698C131.733 24.5324 131.649 24.4775 131.579 24.4079L129.817 22.6379C129.738 22.5707 129.675 22.488 129.63 22.3949C129.585 22.3019 129.559 22.2005 129.555 22.0972C129.551 21.9939 129.569 21.8909 129.606 21.7947C129.644 21.6985 129.701 21.611 129.774 21.538C129.847 21.4649 129.935 21.4077 130.031 21.37C130.127 21.3323 130.23 21.3149 130.334 21.3188C130.437 21.3228 130.538 21.3481 130.631 21.3931C130.724 21.4382 130.807 21.5019 130.874 21.5804L132.112 22.8179Z" fill="#B5B5B5"/>
</g>
<rect x="267.152" y="7" width="84" height="30" rx="6" fill="#B5B5B5"/>
</g>
<rect x="351.152" y="44" width="351" height="1" transform="rotate(-180 351.152 44)" fill="#B5B5B5"/>
<defs>
<clipPath id="clip0_215_3740">
<rect width="351" height="32" fill="white" transform="translate(0.152344 6)"/>
</clipPath>
<clipPath id="clip1_215_3740">
<rect width="101" height="20" fill="white" transform="translate(40.1523 12)"/>
</clipPath>
</defs>
</svg>
