<svg width="20" height="21" viewBox="0 0 20 21" fill="none" xmlns="http://www.w3.org/2000/svg">
<path fill-rule="evenodd" clip-rule="evenodd" d="M9.16667 14.668C9.16667 15.1282 8.79357 15.5013 8.33333 15.5013C7.8731 15.5013 7.5 15.1282 7.5 14.668V9.66797C7.5 9.20773 7.8731 8.83464 8.33333 8.83464C8.79357 8.83464 9.16667 9.20773 9.16667 9.66797V14.668ZM12.5 14.668C12.5 15.1282 12.1269 15.5013 11.6667 15.5013C11.2064 15.5013 10.8333 15.1282 10.8333 14.668V9.66797C10.8333 9.20773 11.2064 8.83464 11.6667 8.83464C12.1269 8.83464 12.5 9.20773 12.5 9.66797V14.668ZM8.33333 3.83464V4.66797H11.6667V3.83464H8.33333ZM3.33333 4.66797H6.66667V3.0013C6.66667 2.54106 7.03976 2.16797 7.5 2.16797H12.5C12.9602 2.16797 13.3333 2.54106 13.3333 3.0013V4.66797H16.6667C17.1269 4.66797 17.5 5.04106 17.5 5.5013C17.5 5.96154 17.1269 6.33464 16.6667 6.33464H15.8333V17.5846C15.8333 18.275 15.2737 18.8346 14.5833 18.8346H5.41667C4.72631 18.8346 4.16667 18.275 4.16667 17.5846V6.33464H3.33333C2.8731 6.33464 2.5 5.96154 2.5 5.5013C2.5 5.04106 2.8731 4.66797 3.33333 4.66797ZM14.1667 6.33464H5.83333V17.168H14.1667V6.33464Z" fill="#0D0D0D"/>
</svg>
